<?xml version="1.0" encoding="UTF-8"?>
<svg id="Capa_3" data-name="Capa 3" xmlns="http://www.w3.org/2000/svg" viewBox="0 0 453.54 453.54">
  <defs>
    <style>
      .cls-1 {
        stroke-linejoin: round;
      }

      .cls-1, .cls-2, .cls-3 {
        fill: none;
        stroke: #fff;
        stroke-width: 2.68px;
      }

      .cls-1, .cls-3 {
        stroke-linecap: round;
      }

      .cls-4 {
        fill: #fff;
        stroke-width: 0px;
      }

      .cls-2, .cls-3 {
        stroke-miterlimit: 10;
      }
    </style>
  </defs>
  <g>
    <ellipse class="cls-2" cx="227.17" cy="228.71" rx="222.78" ry="214.81"/>
    <path class="cls-3" d="M217.26,442.77c-125.99-14.85-194.35-103.2-194.35-197.72,0-110.22,82.43-198.62,181.71-208.84,68.05-7,143.88,19.92,171.48,82.7,22.97,52.26,18.95,123.18.49,139.11"/>
    <g>
      <g>
        <path class="cls-1" d="M216.61,251.02c-6.81,17.68-36.46,29.14-66.98,29.14-35.73,0-64.69-18.01-64.69-40.22s27.89-43.32,60.97-38.79c0,0,35.87.94,66.83,36.39"/>
        <path class="cls-1" d="M216.61,251.02c-6.22,19.08-36.29,32.75-68.36,34.35-18.08.9-34.74-2.71-47.27-9.32,0,0-30.93-13.69-28.74-44.83,2.18-31.14,39.16-41.77,39.16-41.77,0,0,44.33-15.52,88.66,7.97"/>
      </g>
      <g>
        <path class="cls-1" d="M235.03,219.93c6.81-17.68,39.16-28.19,69.68-28.19,35.73,0,64.69,18.01,64.69,40.22s-27.89,43.32-60.97,38.79c0,0-33.57-.88-63.79-33.03"/>
        <path class="cls-1" d="M345.91,281.43c-1.85.69-2.97,1.01-2.97,1.01,0,0-44.33,15.52-88.66-7.97,0,0-8.93-4.56-20.99-15.02"/>
        <path class="cls-1" d="M378.96,253.47c-7.48,16.96-25.84,25.27-33.04,27.97"/>
        <path class="cls-1" d="M235.03,219.93c6.22-19.08,38.99-31.81,71.06-33.4,18.08-.9,34.74,2.71,47.27,9.32,0,0,30.93,13.69,28.74,44.83-.33,4.73-1.46,8.98-3.15,12.79"/>
      </g>
      <path class="cls-1" d="M212.74,237.54c7.38,7.9,12.35,15.19,21.42,22.67"/>
      <path class="cls-1" d="M193.76,194.33c11.46,5.26,24.65,13.65,37.23,28.05"/>
      <path class="cls-1" d="M230.5,221.78c7.38,7.9,12.9,15.7,21.68,23.27"/>
    </g>
    <path class="cls-3" d="M240.12,14.26c125.99,14.96,184.04,106.14,189.02,201.25,6.32,120.55-88.49,203.4-188.24,206.8-173.06,5.89-191.64-160.93-162.21-209.89"/>
    <path class="cls-3" d="M233.3,14.26c97.46,6.63,173.06,72.08,169.93,177.47-2.73,91.71-59.51,92.38-84.8,95.32"/>
    <path class="cls-3" d="M227.44,443.4c-97.46-6.3-173.04-68.43-169.93-168.5,2.37-76.13,35.96-88.52,84.8-90.49"/>
  </g>
  <path class="cls-4" d="M381.54,230.07l.67,5.87-.97,10.57-6.38,14.27,9.98-15.73,5.17-20.23,1.87-18.68v-9.48s-2.67-31.63-2.67-31.63c0,0-5.93-31.93-10.43-39.56-4.5-7.63-15.49-39.29-48.6-60.48-34.51-22.09-80.6-32.86-118.72-29.87-37.9,2.97-74.08,12.3-118.63,51.55,0,0-26.6,26.53-29.25,32.51-2.65,5.98-28.16,40.68-30.91,61.45,0,0-7.45,22.01-8.61,41.74-1.16,19.73-2.23,49.43,5.13,71.76,7.37,22.33,24.52,61.14,45.47,81.98,20.94,20.84,62.94,50.99,96.83,58.03l12.98,4.23s-19.28-3.06-25.8-5.2-38.66-16.3-43.81-18.9c-15.39-7.78-42.76-30.43-51.63-40.09l-18.53-22.17-12.53-19.3-15.18-31-5.87-20.3-5.87-28.8-.89-23.9-.29-10.02,1.75-14.64,2.56-16.11,3.33-14.12,5.01-15.82,7.92-20.23,6.32-10.92,11.44-18.21,17.62-21.97,20.89-20.51,27.73-19.76,30.71-15.18,35.94-12.33,14.32-2.64,36.88-2.69,25.81,1.69,36.6,9.52,32.92,13.73,21.88,15.53,11.45,10.52,13.99,16.19,6.58,8.43,10.77,17.34,7.07,19.04,5.67,19.23,2.08,12.58,2,18.22-.37,22.39-2.02,19.96-5.42,21.34-9.01,16.49-8.22,10.01-10.56,7.94-11.92,6.01-7.85,2.62-7.25.8-6.68,1.65-6.4,1.27-14.88,1.33-18.22-.96-15.71-3.1-13.82-4.35-7.69-3.11-3.18-1.91-11.41-6.72-6.39-5.03-8.47-7.74-8.91-9.9-7.29-8.24-8.25-8.35-6.92-5.97-10.98-7.44-11.44-5.95-11.11-4.3-13.23-3.02-15.94-.82-22.31,4.89-17.01,11.7-7.95,13.86s-5.33,14.72,4.36,25.88c9.69,11.16,25.82,17.76,25.82,17.76,0,0,29.02,7.89,40.58,5.31,11.56-2.58,29.1-2.85,38.58-9.6l-3.39,4.31-15.14,5.19-10.17,2.97s-22.12,4.25-32.05,2.77-21.68-2.99-25.05-5.35-17.16-4.58-26.35-16c-9.19-11.41-11.58-24.55-11.58-24.55l-.62-3.8-1.96,2.81-.79,4.77-.97,8.51s-1.09,21.32-.51,23.9,4.3,31.08,6.31,36.18,11.63,29.86,11.63,29.86l11.99,19.45,13.3,15.28,16.02,14.24,15.17,10.02,16.94,8.29,22.42,7.95,27.14,4.67,19.26.43,13.98.14,30.64-3.63,21.82-5.71s26.55-9.5,29.82-12.42l22.63-13.62s23.43-18.02,31.83-26.78,20.81-27.6,20.81-27.6c0,0,15.65-26.45,20.13-41.74,4.48-15.29,8.19-34.17,8.19-34.17l2.14-28.5s-1.59-33.09-2.02-35.68c-.43-2.58-7.48-32.02-7.48-32.02l-6.56-19.23-9.01-21.03-16.65-26.35-18.38-21.61-20.17-17.08-8.51-5.46-12.32-7.61-17.93-9.9-18.16-7.32,13.36,2.78,32.43,14.75,7.93,4.21,9.85,6.35,11.14,8.27,11.17,9.56,20.39,19.98,6.21,8.04,8.15,11.06,9.98,15.6,12.29,25.88,8.79,26.11,3.39,17.7,1.87,14.43.72,15.47-.97,24.26-2.1,15.39-1.54,7.92-1.62,6.94-4.38,15-6.18,15.96-6.31,13.66-5.34,9.73-8.42,12.86-10.3,14.21-14.05,15.55-13.06,12.11-13.41,10.82-12.69,8.7-18.95,10.73-16.06,7.3-20.26,7.65-19.6,4.67-17.81,3.16-32.65,2.13-33.99-4.84s-42.62-12.84-49.01-18.79c0,0-28.91-16.84-42.53-31.85-13.61-15.01-27.6-38.54-31.41-50.26-3.81-11.72-12.62-44.59-9.86-67.69,2.76-23.1,6.32-49.49,17.54-60.45,11.22-10.96,18.08-18.92,41.13-23.49,23.04-4.57,50.06-2.32,68.21,4.2s22.84,12.69,32.32,19.37c9.48,6.68,35.57,35.1,35.57,35.1,0,0,21.02,19.24,50.96,25.12,29.93,5.87,52.42-11.69,52.42-11.69,0,0,19.81-16.8,13.14-33.6-6.68-16.8-26.27-30.34-46.95-31.66-20.67-1.32-17.66-6.07-54.49,3.84l-17.01,6.28c-.37-4.23,33.18-17.34,51.69-16.97,18.5.37,29.01,1.81,29.01,1.81,0,0,33.32,4.9,46.52,30.16l4.08,11.71Z"/>
</svg>